<svg width="14" height="15" viewBox="0 0 14 15" fill="none" xmlns="http://www.w3.org/2000/svg">
<g id="FA/calendar-check" clip-path="url(#clip0_550_1508)">
<path id="Vector" d="M4.375 0.5C4.85898 0.5 5.25 0.891016 5.25 1.375V2.25H8.75V1.375C8.75 0.891016 9.14102 0.5 9.625 0.5C10.109 0.5 10.5 0.891016 10.5 1.375V2.25H11.8125C12.5371 2.25 13.125 2.83789 13.125 3.5625V4.875H0.875V3.5625C0.875 2.83789 1.46289 2.25 2.1875 2.25H3.5V1.375C3.5 0.891016 3.89102 0.5 4.375 0.5ZM0.875 5.75H13.125V13.1875C13.125 13.9121 12.5371 14.5 11.8125 14.5H2.1875C1.46289 14.5 0.875 13.9121 0.875 13.1875V5.75ZM9.87109 8.83984C10.1281 8.58281 10.1281 8.16719 9.87109 7.91289C9.61406 7.65859 9.19844 7.65586 8.94414 7.91289L6.34648 10.5105L5.06133 9.22539C4.8043 8.96836 4.38867 8.96836 4.13437 9.22539C3.88008 9.48242 3.87734 9.89805 4.13437 10.1523L5.88438 11.9023C6.14141 12.1594 6.55703 12.1594 6.81133 11.9023L9.87109 8.83984Z" fill="#6C757D"/>
</g>
<defs>
<clipPath id="clip0_550_1508">
<rect width="14" height="14" fill="white" transform="translate(0 0.5)"/>
</clipPath>
</defs>
</svg>
