<svg width="30" height="32" viewBox="0 0 30 32" fill="none" xmlns="http://www.w3.org/2000/svg">
<g id="FA/check" clip-path="url(#clip0_321_3609)">
<path id="Vector" d="M15 32C18.9782 32 22.7936 30.3143 25.6066 27.3137C28.4196 24.3131 30 20.2435 30 16C30 11.7565 28.4196 7.68687 25.6066 4.68629C22.7936 1.68571 18.9782 0 15 0C11.0218 0 7.20644 1.68571 4.3934 4.68629C1.58035 7.68687 0 11.7565 0 16C0 20.2435 1.58035 24.3131 4.3934 27.3137C7.20644 30.3143 11.0218 32 15 32ZM21.6211 13.0625L14.1211 21.0625C13.5703 21.65 12.6797 21.65 12.1348 21.0625L8.38477 17.0625C7.83398 16.475 7.83398 15.525 8.38477 14.9438C8.93555 14.3625 9.82617 14.3563 10.3711 14.9438L13.125 17.8813L19.6289 10.9375C20.1797 10.35 21.0703 10.35 21.6152 10.9375C22.1602 11.525 22.166 12.475 21.6152 13.0562L21.6211 13.0625Z" fill="#38BB36"/>
</g>
<defs>
<clipPath id="clip0_321_3609">
<rect width="30" height="32" fill="white"/>
</clipPath>
</defs>
</svg>
