<svg width="31" height="32" viewBox="0 0 31 32" fill="none" xmlns="http://www.w3.org/2000/svg">
<g id="FA/medal" clip-path="url(#clip0_324_10623)">
<path id="Vector" d="M0.245573 2.3875C0.0838542 2.1375 0 1.8375 0 1.5375C0 0.6875 0.658854 0 1.47344 0H8.02005C8.69088 0 9.31979 0.36875 9.6612 0.96875L13.7641 8.1C10.8771 8.48125 8.29557 9.8875 6.37292 11.9688L0.245573 2.3875ZM30.4151 2.3875L24.2938 11.9688C22.3711 9.8875 19.7896 8.48125 16.9026 8.1L21.0055 0.96875C21.3529 0.36875 21.9758 0 22.6466 0H29.1932C30.0078 0 30.6667 0.6875 30.6667 1.5375C30.6667 1.8375 30.5828 2.1375 30.4211 2.3875H30.4151ZM4.79167 21C4.79167 18.0826 5.9023 15.2847 7.87925 13.2218C9.8562 11.1589 12.5375 10 15.3333 10C18.1292 10 20.8105 11.1589 22.7874 13.2218C24.7644 15.2847 25.875 18.0826 25.875 21C25.875 23.9174 24.7644 26.7153 22.7874 28.7782C20.8105 30.8411 18.1292 32 15.3333 32C12.5375 32 9.8562 30.8411 7.87925 28.7782C5.9023 26.7153 4.79167 23.9174 4.79167 21ZM15.8365 15.0688C15.6328 14.6313 15.0398 14.6313 14.8302 15.0688L13.4885 17.9062C13.4047 18.0812 13.249 18.2 13.0693 18.225L10.0625 18.6812C9.6013 18.75 9.42161 19.3375 9.75104 19.6812L11.9253 21.8937C12.057 22.0312 12.1169 22.2188 12.087 22.4125L11.5719 25.5312C11.494 26.0063 11.9732 26.375 12.3865 26.15L15.0698 24.675C15.2315 24.5875 15.4292 24.5875 15.5909 24.675L18.2742 26.15C18.6875 26.375 19.1667 26.0125 19.0888 25.5312L18.5737 22.4125C18.5438 22.225 18.6036 22.0312 18.7354 21.8937L20.9096 19.6812C21.2451 19.3438 21.0594 18.7563 20.5982 18.6812L17.5974 18.225C17.4177 18.2 17.256 18.075 17.1781 17.9062L15.8365 15.0688Z" fill="#D75252"/>
</g>
<defs>
<clipPath id="clip0_324_10623">
<rect width="30.6667" height="32" fill="white"/>
</clipPath>
</defs>
</svg>
