<svg width="14" height="15" viewBox="0 0 14 15" fill="none" xmlns="http://www.w3.org/2000/svg">
<g id="FA/upload" clip-path="url(#clip0_550_1485)">
<path id="Vector" d="M3.5 0.5C2.53477 0.5 1.75 1.28477 1.75 2.25V12.75C1.75 13.7152 2.53477 14.5 3.5 14.5H10.5C11.4652 14.5 12.25 13.7152 12.25 12.75V4.875H8.75C8.26602 4.875 7.875 4.48398 7.875 4V0.5H3.5ZM8.75 0.5V4H12.25L8.75 0.5ZM7.65625 11.6562C7.65625 12.0199 7.36367 12.3125 7 12.3125C6.63633 12.3125 6.34375 12.0199 6.34375 11.6562V8.86445L5.49609 9.71211C5.23906 9.96914 4.82344 9.96914 4.56914 9.71211C4.31484 9.45508 4.31211 9.03945 4.56914 8.78516L6.53789 6.81641C6.79492 6.55937 7.21055 6.55937 7.46484 6.81641L9.43359 8.78516C9.69063 9.04219 9.69063 9.45781 9.43359 9.71211C9.17656 9.96641 8.76094 9.96914 8.50664 9.71211L7.65898 8.86445V11.6562H7.65625Z" fill="#6C757D"/>
</g>
<defs>
<clipPath id="clip0_550_1485">
<rect width="14" height="14" fill="white" transform="translate(0 0.5)"/>
</clipPath>
</defs>
</svg>
