<svg width="31" height="32" viewBox="0 0 31 32" fill="none" xmlns="http://www.w3.org/2000/svg">
<g id="FA/user-circle" clip-path="url(#clip0_324_10635)">
<path id="Vector" d="M24.0455 24.0125C22.7506 21.6125 20.319 20 17.5416 20H13.7916C11.0143 20 8.58264 21.6125 7.28772 24.0125C9.35022 26.4625 12.3385 28 15.6666 28C18.9948 28 21.983 26.4563 24.0455 24.0125ZM0.666626 16C0.666626 11.7565 2.24698 7.68687 5.06002 4.68629C7.87307 1.68571 11.6884 0 15.6666 0C19.6449 0 23.4602 1.68571 26.2732 4.68629C29.0863 7.68687 30.6666 11.7565 30.6666 16C30.6666 20.2435 29.0863 24.3131 26.2732 27.3137C23.4602 30.3143 19.6449 32 15.6666 32C11.6884 32 7.87307 30.3143 5.06002 27.3137C2.24698 24.3131 0.666626 20.2435 0.666626 16ZM15.6666 17C16.7855 17 17.8586 16.5259 18.6497 15.682C19.4409 14.8381 19.8854 13.6935 19.8854 12.5C19.8854 11.3065 19.4409 10.1619 18.6497 9.31802C17.8586 8.47411 16.7855 8 15.6666 8C14.5477 8 13.4747 8.47411 12.6835 9.31802C11.8924 10.1619 11.4479 11.3065 11.4479 12.5C11.4479 13.6935 11.8924 14.8381 12.6835 15.682C13.4747 16.5259 14.5477 17 15.6666 17Z" fill="#3886CD"/>
</g>
<defs>
<clipPath id="clip0_324_10635">
<rect width="30" height="32" fill="white" transform="translate(0.666626)"/>
</clipPath>
</defs>
</svg>
