<svg width="31" height="32" viewBox="0 0 31 32" fill="none" xmlns="http://www.w3.org/2000/svg">
<g id="FA/user-active" clip-path="url(#clip0_324_10641)">
<path id="Vector" d="M4.83337 9.59995C4.83337 7.90257 5.46552 6.2747 6.59073 5.07447C7.71595 3.87424 9.24208 3.19995 10.8334 3.19995C12.4247 3.19995 13.9508 3.87424 15.076 5.07447C16.2012 6.2747 16.8334 7.90257 16.8334 9.59995C16.8334 11.2973 16.2012 12.9252 15.076 14.1254C13.9508 15.3257 12.4247 16 10.8334 16C9.24208 16 7.71595 15.3257 6.59073 14.1254C5.46552 12.9252 4.83337 11.2973 4.83337 9.59995ZM0.333374 27.315C0.333374 22.39 4.074 18.4 8.69119 18.4H12.9756C17.5928 18.4 21.3334 22.39 21.3334 27.315C21.3334 28.135 20.7099 28.8 19.9412 28.8H1.72556C0.956812 28.8 0.333374 28.135 0.333374 27.315ZM29.6303 12.05L23.6303 18.45C23.1896 18.92 22.4771 18.92 22.0412 18.45L19.0412 15.25C18.6006 14.78 18.6006 14.02 19.0412 13.555C19.4818 13.09 20.1943 13.085 20.6303 13.555L22.8334 15.905L28.0365 10.35C28.4771 9.87995 29.1896 9.87995 29.6256 10.35C30.0615 10.82 30.0662 11.58 29.6256 12.045L29.6303 12.05Z" fill="#E18F14"/>
</g>
<defs>
<clipPath id="clip0_324_10641">
<rect width="30" height="32" fill="white" transform="translate(0.333374)"/>
</clipPath>
</defs>
</svg>
